{"title":"Alice In Chains (1995) - Custom Remaster by MC Lurken 16-bit 44.","uid":7512587,"size":482593249,"categoryP":"audio","categoryS":"flac","magnet":"?xt=urn:btih:88c7bdf7749b8f580f186471a557ffaadc88c713&amp;dn=Alice+In+Chains+%281995%29+-+Custom+Remaster+by+MC+Lurken+16-bit+44.&amp;tr=udp%3A%2F%2Ftracker.openbittorrent.com%3A80&amp;tr=udp%3A%2F%2Fopen.demonii.com%3A1337&amp;tr=udp%3A%2F%2Ftracker.coppersurfer.tk%3A6969&amp;tr=udp%3A%2F%2Fexodus.desync.com%3A6969","seeders":1,"leechers":0,"uploader":"beavis39","files":-1,"time":1344369525,"description":"Alice In Chains (1995) - Custom Remaster by MC Lurken\n\n\n\n!!!!!!!!!!!!!THIS IS NOT AN OFFICIAL REMASTER, THIS IS A FAN RELEASE!!!!!!!!!!!!!!\n!!!!!!!!!!!!!THIS IS NOT AN OFFICIAL REMASTER, THIS IS A FAN RELEASE!!!!!!!!!!!!!!\n!!!!!!!!!!!!!THIS IS NOT AN OFFICIAL REMASTER, THIS IS A FAN RELEASE!!!!!!!!!!!!!!\n\n\n\n1 - Grind\n2 - Brush Away\n3 - Sludge Factory\n4 - Heaven Beside You\n5 - Head Creeps\n6 - Again\n7 - Shame In You\n8 - God Am\n9 - So Close\n10 - Nothin' Song\n11 - Frogs\n12 - Over Now\n\n\n\nSetup:\n-HP G72-250US\n-Intel Core i3 M350 2.27GHz\n-8Gb PC3-10700 RAM\n-Win7 64-bit SP1\n-SB X-Fi Surround 5.1\n\nProcess:\n-Original 16/44.1 files joined in Wavelab 6\n-DC offset removed, this will yield a file with a bit depth of 18-24 bits\n-Resample to 384kHz in Wavelab w/crystal resampler ultra(slow) relax background priority\n-Create new 64-bit/384kHz master recording in Wavelab (0.08db gain)\n\nAs reported in Wavelab:\n-Original 16/44 - Apparent Bit Resolution = 16, Peak = -0.095db\n-DC Offset Removed - Apparent Bit Resolution = 24, Peak = -0.094db\n-Final Recording - Apparent Bit Resolution = 41, Peak = 0.229db\n\n-Resample 64-bit/384kHz to 64-bit/44.1kHz in Wavelab w/crystal resampler ultra(slow) relax background priority\n-Apply MBIT+ Dither in Wavelab w/Izotope Ozone 5 VST Plugin\n\nMBIT+ Dither Settings\n*Noise Shaping - Light\n*Bit Depth - 16\n*Dither Amount - Low\n*Auto-Blanking - on\n*Limit Peaks - off\n*Harmonic Suppression - on\n\n-Flac encode level 0 with Trader's Little Helper\n-Tag and pic with xrecode II\n\n\nfoobar2000 1.1.13 / Dynamic Range Meter 1.1.1\nlog date: 2012-08-06 14:13:19\n\n--------------------------------------------------------------------------------\nAnalyzed: ? / ?\n--------------------------------------------------------------------------------\n\nDR         Peak         RMS     Duration Track\n--------------------------------------------------------------------------------\nDR8       -0.14 dB    -9.04 dB      4:46 ?-01 - Grind\nDR7       -0.28 dB    -8.92 dB      3:22 ?-02 - Brush Away\nDR8       -0.24 dB    -9.01 dB      7:13 ?-03 - Sludge Factory\nDR9       -0.50 dB   -11.34 dB      5:28 ?-04 - Heaven Beside You\nDR8       -0.22 dB    -9.37 dB      6:28 ?-05 - Head Creeps\nDR8       -0.27 dB    -9.27 dB      4:05 ?-06 - Again\nDR8       -0.29 dB   -10.17 dB      5:36 ?-07 - Shame In You\nDR8       -0.37 dB    -9.83 dB      4:08 ?-08 - God Am\nDR7       -0.19 dB    -8.93 dB      2:46 ?-09 - So Close\nDR8       -0.43 dB    -9.88 dB      5:41 ?-10 - Nothin' Song\nDR8       -0.28 dB   -10.87 dB      8:18 ?-11 - Frogs\nDR8       -1.44 dB   -11.40 dB      7:04 ?-12 - Over Now\n--------------------------------------------------------------------------------\n\nNumber of tracks:  12\nOfficial DR value: DR8\n\nSamplerate:        44100 Hz\nChannels:          2\nBits per sample:   16\nBitrate:           1411 kbps\nCodec:             PCM\n\n\n\nenjoy :)","torrent":{"xt":"urn:btih:88c7bdf7749b8f580f186471a557ffaadc88c713","amp;dn":"Alice+In+Chains+%281995%29+-+Custom+Remaster+by+MC+Lurken+16-bit+44.","amp;tr":["udp%3A%2F%2Ftracker.openbittorrent.com%3A80","udp%3A%2F%2Fopen.demonii.com%3A1337","udp%3A%2F%2Ftracker.coppersurfer.tk%3A6969","udp%3A%2F%2Fexodus.desync.com%3A6969"],"infoHash":"88c7bdf7749b8f580f186471a557ffaadc88c713","infoHashBuffer":{"type":"Buffer","data":[136,199,189,247,116,155,143,88,15,24,100,113,165,87,255,170,220,136,199,19]},"announce":[],"urlList":[]}}